<?xml version="1.0" encoding="utf-8"?>
<!-- Generator: Adobe Illustrator 19.0.0, SVG Export Plug-In . SVG Version: 6.00 Build 0)  -->
<svg version="1.1" id="Layer_1" xmlns="http://www.w3.org/2000/svg" xmlns:xlink="http://www.w3.org/1999/xlink" x="0px" y="0px"
	 viewBox="39.6 76.6 1765.4 352.5" style="enable-background:new 39.6 76.6 1765.4 352.5;" xml:space="preserve">
<style type="text/css">
	.st0{fill:#28408E;}
	.st1{fill:#E32229;}
	.st2{font-family:'CalifornianFB-Reg';}
	.st3{font-size:200px;}
	.st4{font-family:'BaskOldFace';}
	.st5{font-size:60px;}
	.st6{font-size:75px;}
</style>
<path id="XMLID_3_" class="st0" d="M103.2,280.4c0,0-70.1-23.4-50.1-101.2C73,101.4,158.4,87,158.4,87c31.7-5.3,68.8-2,98.1,11.2
	c43.3,19.6,73.2,68.2,81.1,113.8c10,57.8-2.8,121.8-41.9,166.5c-28.5,32.6-74.4,50.1-117.2,37.7c-27.6-8-44.4-28.9-60.9-51.1
	c-7.3-9.8-16.4-21.1-20.3-33c24.2,20.3,53.4,39.4,83.9,48c31.2,8.8,65.3-5.5,85.7-29.7c16.5-19.5,24.1-45,27.7-69.9
	c6.3-44.4,5.3-100.9-33-131.4c-33.4-26.5-86.7-26.5-123.6-7.8c-17.3,8.8-31.8,22.7-39.8,40.4C73,237.2,103.2,280.4,103.2,280.4z"/>
<path id="XMLID_2_" class="st1" d="M114.4,309.1c1.7-7.6,3.6-15.3,7.1-22.3c4.7-9.6,10.5-18.7,17.3-26.9
	c17.4-21.1,41.5-36.9,67.4-45.4c27.9-9.2,55.7-5.5,84.5-4c21.6,1.2,43.1,2.4,64.7,3.2c10.3,0.3,20.6,0.6,30.9,0.8
	c22.4,0.3,44.8,2.1,66.4-4.8c9.2-3,18.2-6.7,26.9-10.9c5.9-2.8,11.6-5.8,17.4-9c4.8-2.6,16-6.7,19-11.3
	c15.4-24.3-32.3,80.5-116.9,85.5c-79.1,4.8-185.9,0-185.9,0c-34.5-1.5-68.3,18.4-93.3,40.3C118,305.8,116.2,307.6,114.4,309.1z"/>
<text id="XMLID_1_" transform="matrix(1 0 0 1 527.7391 285.1231)" class="st0 st2 st3">Dubai Tuitions</text>
<text id="XMLID_4_" transform="matrix(1 0 0 1 1702.139 182.3208)" class="st0 st4 st5">TM</text>
<text id="XMLID_5_" transform="matrix(1 0 0 1 740.189 376.0854)" class="st0 st4 st6">Knowledge Skills Values</text>
</svg>
